<?xml version="1.0" encoding="utf-8"?>
<svg width="1282px" height="150px" viewBox="0 0 1282 150" version="1.1" xmlns:xlink="http://www.w3.org/1999/xlink" xmlns="http://www.w3.org/2000/svg">
  <desc>Created with Lunacy</desc>
  <defs>
    <linearGradient x1="0.5" y1="0.581001341" x2="0.5" y2="1" id="gradient_1">
      <stop offset="0" stop-color="#FFFFFF" stop-opacity="0.5803922" />
      <stop offset="1" stop-color="#FFFFFF" stop-opacity="0.298039228" />
    </linearGradient>
    <linearGradient x1="1" y1="0.5" x2="-2.220446E-16" y2="0.5" id="gradient_2">
      <stop offset="0" stop-color="#1EADEE" />
      <stop offset="1" stop-color="#B94BEE" />
    </linearGradient>
    <path d="M0 146.464C0 146.464 11.0011 60.8221 80.2578 48.5876C149.515 36.353 316.031 113.006 324.032 91.2835C332.032 69.561 333.783 107.18 346.034 96.8597C358.285 86.5395 364 33.3568 376.039 33.3568C388.077 33.3568 403.789 89.982 416.791 89.9103C429.792 89.8385 443 59.324 462.295 59.324C481.59 59.324 481.047 85.7073 491.798 91.2835C502.549 96.8597 505.549 81.5044 516.55 85.7073C527.551 89.9103 526.104 98.5244 534.552 102.769C543 107.014 600.059 107.014 627.811 142.219C655.564 177.425 715.57 81.5044 753.323 85.7073C791.077 89.9103 824.83 142.219 846.583 142.219C868.335 142.219 936.591 65.0667 962.094 68.812C987.596 72.5572 1007.35 114.254 1027.1 102.769C1046.85 91.2835 1043.35 73.556 1057.35 64.3176C1071.35 55.0793 1090.36 58.3252 1098.11 48.5876C1105.86 38.8499 1120.36 7.63936 1140.36 4.89283C1160.36 2.14631 1168.61 27.1147 1190.12 21.1223C1211.62 15.1299 1217.87 0.648202 1232.37 0.648202C1246.87 0.648202 1271.12 11.1349 1278.37 0.648202C1285.63 -9.83853 1278.37 149.331 1278.37 149.331L0 146.464Z" transform="matrix(-1 0 0 1 1282 0)" id="path_1" />
  </defs>
  <g id="Graph_2">
    <use stroke="none" fill="url(#gradient_1)" fill-opacity="0.575464249" xlink:href="#path_1" />
    <use stroke="none" fill="url(#gradient_2)" fill-opacity="0.575464249" xlink:href="#path_1" />
  </g>
</svg>